<?xml version="1.0" encoding="UTF-8" standalone="no"?>
<!-- Created with Inkscape (http://www.inkscape.org/) -->

<svg
   version="1.1"
   id="svg1"
   width="1262.6504"
   height="1262.9929"
   viewBox="0 0 1262.6504 1262.9929"
   sodipodi:docname="Logo-vertical.jpg"
   inkscape:export-filename="Logo-vertical.svg"
   inkscape:export-xdpi="8.3297176"
   inkscape:export-ydpi="8.3297176"
   xmlns:inkscape="http://www.inkscape.org/namespaces/inkscape"
   xmlns:sodipodi="http://sodipodi.sourceforge.net/DTD/sodipodi-0.dtd"
   xmlns="http://www.w3.org/2000/svg"
   xmlns:svg="http://www.w3.org/2000/svg">
  <defs
     id="defs1" />
  <sodipodi:namedview
     id="namedview1"
     pagecolor="#ffffff"
     bordercolor="#000000"
     borderopacity="0.25"
     inkscape:showpageshadow="2"
     inkscape:pageopacity="0.0"
     inkscape:pagecheckerboard="0"
     inkscape:deskcolor="#d1d1d1" />
  <g
     inkscape:groupmode="layer"
     inkscape:label="Image"
     id="g1"
     transform="translate(-432.53174,-146.0827)">
    <g
       id="g11"
       transform="matrix(3.2354014,0,0,3.2354014,-3749.4572,-2145.4076)">
      <path
         style="fill:#dd4a60"
         d="m 1390.0633,1098.547 c 53.7014,-0.041 141.5765,-0.041 195.278,0 53.7014,0.041 9.7639,0.075 -97.639,0.075 -107.4029,0 -151.3405,-0.034 -97.639,-0.075 z m 103.0247,-35.8674 0.072,-23.9854 0.077,23.8175 0.077,23.8175 0.6625,0.1277 c 0.5658,0.1091 0.5441,0.1335 -0.1494,0.1679 l -0.8118,0.04 z m 42.3637,23.764 c 22.4466,-0.042 59.1775,-0.042 81.6241,0 22.4467,0.042 4.0812,0.076 -40.8121,0.076 -44.8932,0 -63.2587,-0.034 -40.812,-0.076 z m 122.9528,0.018 c 0.4896,-0.1279 0.5166,-2.9055 0.5166,-53.1018 v -52.96686 l -53.2107,-0.0758 -53.2106,-0.0758 53.2844,10e-4 53.2845,10e-4 0.075,53.21066 0.075,53.2107 -0.665,-0.034 c -0.4999,-0.026 -0.5367,-0.068 -0.1484,-0.1693 z m -330.8611,-11.381 c -0.078,-0.2042 -0.1067,-34.9103 -0.065,-77.12458 l 0.076,-76.75326 0.073,76.97467 0.073,76.97467 h 17.563 17.563 l 0.075,-23.9854 0.076,-23.9854 53.2844,-10e-4 53.2845,-10e-4 -53.2089,0.076 -53.209,0.076 -0.076,23.9846 -0.075,23.9846 -17.6468,0.076 c -13.9609,0.06 -17.6763,-10e-4 -17.7879,-0.2952 z m 165.6173,-106.79266 c 0,-32.55372 0.035,-45.87115 0.077,-29.59429 0.042,16.27686 0.042,42.91171 0,59.18857 -0.042,16.27688 -0.077,2.95938 -0.077,-29.59428 z m -23.7145,57.56496 c 0,-0.4059 0.067,-0.572 0.1489,-0.369 0.082,0.2029 0.082,0.535 0,0.738 -0.082,0.2029 -0.1489,0.037 -0.1489,-0.369 z m -71.2648,-21.7708 35.7936,-0.077 v -29.51809 -29.51813 l -35.7198,-0.0768 -35.7198,-0.0768 35.7936,0.002 35.7936,0.002 v 29.66809 29.66813 h -35.8674 -35.8674 z m 142.3671,-11.80877 c 0,-0.36771 0.072,-0.41048 0.2383,-0.14841 0.1851,0.29144 11.3079,0.38392 53.3538,0.44362 l 53.1199,0.0754 -53.3583,0.073 c -50.6499,0.0693 -53.358,0.0468 -53.3537,-0.44362 z m -153.4373,-0.29511 c 6.4539,-0.0444 17.0149,-0.0444 23.4688,0 6.4539,0.0444 1.1735,0.0807 -11.7344,0.0807 -12.9078,0 -18.1883,-0.0363 -11.7344,-0.0807 z m -11.3469,-35.40493 c 0.2131,-0.0853 0.4677,-0.0748 0.5658,0.0233 0.098,0.0981 -0.076,0.16787 -0.3875,0.15505 -0.3439,-0.0142 -0.4138,-0.0841 -0.1783,-0.17835 z m 12.2325,-0.0197 c 6.2916,-0.0445 16.5869,-0.0445 22.8784,0 6.2916,0.0445 1.1439,0.0808 -11.4392,0.0808 -12.5831,0 -17.7307,-0.0364 -11.4392,-0.0808 z m 152.5471,-11.66069 c 0,-0.12177 24.0777,-0.18917 53.5059,-0.14978 29.4283,0.0394 44.8712,0.10574 34.3176,0.14743 -50.9959,0.20146 -87.8235,0.20244 -87.8235,0.002 z m -47.3822,-135.86799 c 0,-49.03352 0.034,-69.04874 0.076,-44.47825 0.042,24.57049 0.042,64.68883 0,89.15187 -0.042,24.46304 -0.076,4.35991 -0.076,-44.67362 z m -165.6824,0.22141 0.073,-76.38426 0.075,76.23605 0.075,76.23605 70.9224,0.075 70.9224,0.075 -71.0706,0.0732 -71.0706,0.0732 z m 212.9081,58.67196 c 0,-9.82294 0.037,-13.84142 0.083,-8.92994 0.045,4.91147 0.045,12.94842 0,17.85989 -0.045,4.91147 -0.083,0.89299 -0.083,-8.92995 z m -70.9412,16.23627 c 0,-0.40591 0.067,-0.57196 0.1489,-0.36901 0.082,0.20296 0.082,0.53506 0,0.73802 -0.082,0.20295 -0.1489,0.0369 -0.1489,-0.36901 z m 83.441,-22.04682 c 0.2131,-0.0853 0.4677,-0.0748 0.5658,0.0233 0.098,0.0981 -0.076,0.16786 -0.3874,0.15504 -0.3439,-0.0142 -0.4139,-0.0841 -0.1784,-0.17835 z m 20.9411,-0.0197 c 11.0813,-0.0429 29.2142,-0.0429 40.2955,0 11.0812,0.0429 2.0147,0.0779 -20.1478,0.0779 -22.1625,0 -31.2289,-0.0351 -20.1477,-0.0779 z m 60.9598,0.0179 c 0.4877,-0.12744 0.5166,-1.78087 0.5166,-29.48522 V 803.2704 l -41.4025,-0.0764 -41.4024,-0.0764 41.4762,0.002 41.4763,0.002 0.075,29.59428 0.075,29.59429 -0.6656,-0.0342 c -0.4999,-0.0257 -0.537,-0.0679 -0.149,-0.16925 z m -200.6684,-70.94091 c 0,-32.55372 0.034,-45.87115 0.077,-29.59429 0.042,16.27686 0.042,42.91172 0,59.18858 -0.042,16.27685 -0.077,2.95942 -0.077,-29.59429 z m -58.3554,47.03112 c 0.2131,-0.0853 0.4677,-0.0748 0.5658,0.0233 0.098,0.0981 -0.076,0.16787 -0.3875,0.15505 -0.3439,-0.0142 -0.4138,-0.0841 -0.1783,-0.17835 z m 12.2325,-0.0196 c 6.2916,-0.0445 16.5869,-0.0445 22.8784,0 6.2916,0.0445 1.1439,0.0808 -11.4392,0.0808 -12.5831,0 -17.7307,-0.0364 -11.4392,-0.0808 z m 152.3969,-47.08527 v -23.6902 l 53.2084,-0.0746 53.2083,-0.0746 0.079,-17.78529 0.078,-17.78529 0.072,17.93369 0.072,17.9337 h -53.2827 -53.2827 l -0.078,23.6164 -0.078,23.61641 z M 1330.602,719.79919 c 8.3335,-0.0436 21.8834,-0.0436 30.1109,3e-5 8.2275,0.0436 1.4092,0.0793 -15.1518,0.0792 -16.561,-2e-5 -23.2926,-0.0357 -14.9591,-0.0793 z m 106.4214,0 c 8.2522,-0.0436 21.6693,-0.0436 29.8156,3e-5 8.1464,0.0436 1.3945,0.0793 -15.0041,0.0793 -16.3986,-2e-5 -23.0638,-0.0357 -14.8115,-0.0793 z m -46.9601,-11.51303 c 53.7014,-0.0411 141.5765,-0.0411 195.278,0 53.7014,0.0411 9.7639,0.0747 -97.639,0.0747 -107.4029,0 -151.3405,-0.0336 -97.639,-0.0747 z"
         id="path5" />
      <path
         style="fill:#d20e22"
         d="M 1292.5719,903.49037 V 708.50756 h 195.1304 195.1304 v 194.98281 194.98283 h -195.1304 -195.1304 z m 82.9525,160.00103 v -23.4688 h 52.9893 52.9893 v -65.38786 -65.38788 h -82.9526 -82.9526 v 88.85667 88.85667 h 29.9633 29.9633 z m -47.8232,-65.24027 v -76.90087 h 70.8492 70.8492 v 52.84087 52.84087 l -53.2107,0.075 -53.2107,0.075 -0.075,23.9854 -0.076,23.9854 h -17.563 -17.563 z m 106.4214,-23.76399 v -29.66809 l -35.7936,-0.075 -35.7936,-0.075 v 29.81805 29.8181 l 35.7936,-0.075 35.7936,-0.075 z m -58.5982,-0.1476 v -17.56469 h 23.3212 23.3212 v 17.56469 17.56468 h -23.3212 -23.3212 z m 283.6189,59.11476 -0.075,-53.21067 -53.2107,-0.0746 -53.2107,-0.0746 v -11.65979 -11.65979 h 53.2845 53.2845 v -23.764 -23.76399 h -83.1002 -83.1001 v 59.04098 59.04096 h 59.1886 59.1885 v 5.7565 5.7565 h -59.1885 -59.1886 v 23.9116 23.9116 h 83.1009 83.101 z m -154.0239,29.7419 v -11.6606 h 59.1885 59.1886 v -17.8592 -17.8591 l -59.1147,-0.075 -59.1148,-0.074 -0.075,-47.15901 -0.075,-47.15898 h 71.1452 71.1453 v 11.66059 11.6606 h -53.4321 -53.432 v 24.05919 24.0592 h 53.2844 53.2845 v 41.03351 41.0334 h -70.9968 -70.9967 z m 47.5279,-183.02702 v -17.85989 h 41.4778 41.4777 l -0.075,-29.59429 -0.075,-29.59428 -41.4025,-0.0748 -41.4025,-0.0748 v -11.80723 -11.80717 h 53.1369 53.1368 v -29.66808 -29.66809 h -82.9525 -82.9526 v 89.00426 89.00427 h 29.8157 29.8157 z m -47.4547,-71.36577 0.074,-76.82707 70.7754,-0.0744 70.7753,-0.0744 v 17.7121 17.7121 l -53.2106,0.0746 -53.2107,0.0746 -0.076,23.69019 -0.075,23.69019 h 41.478 41.4781 v 17.71229 17.71229 h -41.4763 -41.4763 v 17.71229 17.71229 h -17.5653 -17.5652 z m -23.6896,-0.0738 v -89.00427 h -29.6681 -29.6681 v 59.18858 59.18857 h -23.3212 -23.3212 v -59.18857 -59.18858 h -29.9633 -29.9633 v 89.00427 89.00426 h 82.9526 82.9526 z m -153.8018,0.44281 v -76.16286 h 17.4171 17.4171 v 58.59817 58.59816 h 35.8674 35.8674 v -59.04097 -59.04097 h 17.5647 17.5647 v 76.60566 76.60566 h -70.8492 -70.8492 z"
         id="path3" />
    </g>
  </g>
</svg>
